<svg width="64" height="64" viewBox="0 0 64 64" fill="none" xmlns="http://www.w3.org/2000/svg">
<path d="M25.6006 25.5291C25.6006 22.0043 28.466 19.147 32.0006 19.147C35.5352 19.147 38.4006 22.0043 38.4006 25.5291V38.2932C38.4006 41.818 35.5352 44.6753 32.0006 44.6753C28.466 44.6753 25.6006 41.818 25.6006 38.2932V25.5291Z" fill="#C2CCD3"/>
<path d="M0 6.38209C0 2.85736 2.86538 0 6.4 0C9.93462 0 12.8 2.85736 12.8 6.38209V44.6746H6.4C2.86538 44.6746 0 41.8173 0 38.2925V6.38209Z" fill="#8B9FAD"/>
<path d="M0 6.38209C0 2.85736 2.86538 0 6.4 0H25.6C29.1346 0 32 2.85736 32 6.38209V12.7642H6.4C2.86538 12.7642 0 9.90682 0 6.38209Z" fill="#8B9FAD"/>
<path d="M19.2 12.7642H12.8V19.1463C12.8 15.6215 15.6654 12.7642 19.2 12.7642Z" fill="#8B9FAD"/>
<path d="M64 57.4387C64 60.9634 61.1346 64 57.6 64C54.0654 64 51.2 60.9634 51.2 57.4387V19.1462H57.6C61.1346 19.1462 64 22.0035 64 25.5282V57.4387Z" fill="#8B9FAD"/>
<path d="M64 57.4387C64 60.9634 61.1346 64 57.6 64H38.4C34.8654 64 32 60.9634 32 57.4387V51.0566H44.8H57.6C61.1346 51.0566 64 53.914 64 57.4387Z" fill="#8B9FAD"/>
<path d="M44.8 51.0566H51.2V44.6745C51.2 48.1992 48.3346 51.0566 44.8 51.0566Z" fill="#8B9FAD"/>
</svg>
