<svg width="196" height="80" viewBox="0 0 196 80" fill="none" xmlns="http://www.w3.org/2000/svg">
<path d="M116.406 62H97.9375V59.7812C99.5625 59.6771 100.906 59.4688 101.969 59.1562C103.052 58.8438 103.594 58.4583 103.594 58C103.594 57.8125 103.573 57.5833 103.531 57.3125C103.49 57.0417 103.427 56.8021 103.344 56.5938L99.6562 46.6562H84.125C83.5417 48.1146 83.0625 49.3854 82.6875 50.4688C82.3333 51.5521 82.0104 52.5521 81.7188 53.4688C81.4479 54.3646 81.2604 55.0938 81.1562 55.6562C81.0521 56.2188 81 56.6771 81 57.0312C81 57.8646 81.6562 58.5104 82.9688 58.9688C84.2812 59.4271 85.7604 59.6979 87.4062 59.7812V62H70.7188V59.7812C71.2604 59.7396 71.9375 59.625 72.75 59.4375C73.5625 59.2292 74.2292 58.9583 74.75 58.625C75.5833 58.0625 76.2292 57.4792 76.6875 56.875C77.1458 56.25 77.5938 55.3958 78.0312 54.3125C80.2604 48.75 82.7188 42.5 85.4062 35.5625C88.0938 28.625 90.4896 22.4479 92.5938 17.0312H95.0938L109.875 55.2812C110.188 56.0938 110.542 56.75 110.938 57.25C111.333 57.75 111.885 58.2396 112.594 58.7188C113.073 59.0104 113.698 59.2604 114.469 59.4688C115.24 59.6562 115.885 59.7604 116.406 59.7812V62ZM98.5312 43.875L91.8125 26.6875L85.2188 43.875H98.5312ZM140.781 35.1562C140.781 36.2188 140.521 37.1667 140 38C139.479 38.8125 138.677 39.2188 137.594 39.2188C136.427 39.2188 135.531 38.9167 134.906 38.3125C134.302 37.7083 134 37.0417 134 36.3125C134 35.8542 134.031 35.4375 134.094 35.0625C134.177 34.6875 134.25 34.3125 134.312 33.9375C133.333 33.9375 132.188 34.3333 130.875 35.125C129.562 35.9167 128.448 37.0417 127.531 38.5V56.4375C127.531 57.1667 127.667 57.7604 127.938 58.2188C128.229 58.6771 128.677 59.0208 129.281 59.25C129.802 59.4583 130.469 59.6146 131.281 59.7188C132.115 59.8229 132.833 59.8958 133.438 59.9375V62H117.188V59.9375C117.667 59.8958 118.156 59.8542 118.656 59.8125C119.177 59.7708 119.625 59.6875 120 59.5625C120.583 59.375 121.01 59.0521 121.281 58.5938C121.573 58.1146 121.719 57.5 121.719 56.75V37.7188C121.719 37.0729 121.562 36.4375 121.25 35.8125C120.958 35.1875 120.542 34.6875 120 34.3125C119.604 34.0625 119.135 33.8854 118.594 33.7812C118.052 33.6562 117.469 33.5729 116.844 33.5312V31.5L127.094 30.8125L127.531 31.25V35.5938H127.688C128.979 33.9062 130.417 32.625 132 31.75C133.583 30.875 135.031 30.4375 136.344 30.4375C137.656 30.4375 138.719 30.8646 139.531 31.7188C140.365 32.5729 140.781 33.7188 140.781 35.1562ZM158.406 62H143.5V59.9375C143.979 59.8958 144.469 59.8542 144.969 59.8125C145.49 59.7708 145.938 59.6875 146.312 59.5625C146.896 59.375 147.323 59.0521 147.594 58.5938C147.885 58.1146 148.031 57.5 148.031 56.75V37.7188C148.031 37.0521 147.875 36.4479 147.562 35.9062C147.271 35.3438 146.854 34.875 146.312 34.5C145.917 34.25 145.344 34.0417 144.594 33.875C143.844 33.6875 143.156 33.5729 142.531 33.5312V31.5L153.406 30.8125L153.844 31.25V56.375C153.844 57.1042 153.979 57.7083 154.25 58.1875C154.542 58.6667 154.99 59.0208 155.594 59.25C156.052 59.4375 156.5 59.5938 156.938 59.7188C157.375 59.8229 157.865 59.8958 158.406 59.9375V62ZM154.469 18.6562C154.469 19.8438 154.073 20.8854 153.281 21.7812C152.51 22.6562 151.552 23.0938 150.406 23.0938C149.344 23.0938 148.417 22.6771 147.625 21.8438C146.854 20.9896 146.469 20.0208 146.469 18.9375C146.469 17.7917 146.854 16.7917 147.625 15.9375C148.417 15.0833 149.344 14.6562 150.406 14.6562C151.594 14.6562 152.562 15.0625 153.312 15.875C154.083 16.6667 154.469 17.5938 154.469 18.6562ZM182.531 46.9062C183.385 47.6562 184.042 48.5208 184.5 49.5C184.958 50.4792 185.188 51.6771 185.188 53.0938C185.188 55.9479 184.115 58.2812 181.969 60.0938C179.844 61.9062 177.083 62.8125 173.688 62.8125C171.896 62.8125 170.24 62.4896 168.719 61.8438C167.219 61.1979 166.146 60.6042 165.5 60.0625L164.875 62.0938H162.531L162.219 51.375H164.375C164.542 52.1875 164.896 53.1354 165.438 54.2188C165.979 55.3021 166.635 56.2812 167.406 57.1562C168.219 58.0729 169.188 58.8438 170.312 59.4688C171.458 60.0938 172.74 60.4062 174.156 60.4062C176.156 60.4062 177.698 59.9583 178.781 59.0625C179.865 58.1458 180.406 56.8438 180.406 55.1562C180.406 54.2812 180.229 53.5312 179.875 52.9062C179.542 52.2604 179.042 51.6979 178.375 51.2188C177.688 50.7396 176.844 50.3125 175.844 49.9375C174.844 49.5417 173.729 49.1562 172.5 48.7812C171.521 48.4896 170.427 48.0938 169.219 47.5938C168.031 47.0729 167.01 46.4688 166.156 45.7812C165.24 45.0521 164.49 44.1562 163.906 43.0938C163.323 42.0312 163.031 40.7812 163.031 39.3438C163.031 36.8229 163.969 34.6875 165.844 32.9375C167.719 31.1875 170.229 30.3125 173.375 30.3125C174.583 30.3125 175.812 30.4688 177.062 30.7812C178.333 31.0938 179.365 31.4688 180.156 31.9062L180.875 30.2812H183.125L183.594 40.1875H181.438C181 37.9792 180.052 36.1875 178.594 34.8125C177.156 33.4167 175.396 32.7188 173.312 32.7188C171.604 32.7188 170.26 33.1458 169.281 34C168.302 34.8542 167.812 35.8854 167.812 37.0938C167.812 38.0312 167.969 38.8125 168.281 39.4375C168.615 40.0625 169.104 40.5938 169.75 41.0312C170.375 41.4479 171.156 41.8438 172.094 42.2188C173.052 42.5729 174.229 42.9792 175.625 43.4375C177 43.875 178.292 44.3854 179.5 44.9688C180.729 45.5521 181.74 46.1979 182.531 46.9062Z" fill="#3C4952"/>
<path d="M27.2002 35.1469C27.2002 32.5034 29.3492 30.3604 32.0002 30.3604C34.6512 30.3604 36.8002 32.5034 36.8002 35.1469V44.7201C36.8002 47.3636 34.6512 49.5066 32.0002 49.5066C29.3492 49.5066 27.2002 47.3636 27.2002 44.7201V35.1469Z" fill="#C2CCD3"/>
<path d="M8 20.7866C8 18.143 10.149 16 12.8 16C15.451 16 17.6 18.143 17.6 20.7866V49.506H12.8C10.149 49.506 8 47.3629 8 44.7194V20.7866Z" fill="#8B9FAD"/>
<path d="M8 20.7866C8 18.143 10.149 16 12.8 16H27.2C29.851 16 32 18.143 32 20.7866V25.5731H12.8C10.149 25.5731 8 23.4301 8 20.7866Z" fill="#8B9FAD"/>
<path d="M22.4 25.5731H17.6V30.3597C17.6 27.7162 19.749 25.5731 22.4 25.5731Z" fill="#8B9FAD"/>
<path d="M56 59.079C56 61.7226 53.851 64 51.2 64C48.549 64 46.4 61.7226 46.4 59.079V30.3596H51.2C53.851 30.3596 56 32.5026 56 35.1462V59.079Z" fill="#8B9FAD"/>
<path d="M56 59.079C56 61.7226 53.851 64 51.2 64H36.8C34.149 64 32 61.7226 32 59.079V54.2924H41.6H51.2C53.851 54.2924 56 56.4355 56 59.079Z" fill="#8B9FAD"/>
<path d="M41.6 54.2924H46.4V49.5059C46.4 52.1494 44.251 54.2924 41.6 54.2924Z" fill="#8B9FAD"/>
</svg>
