<svg width="64" height="64" viewBox="0 0 64 64" fill="none" xmlns="http://www.w3.org/2000/svg">
<path d="M14.667 16.5696C14.667 13.0449 17.5324 10.1875 21.067 10.1875C24.6016 10.1875 27.467 13.0449 27.467 16.5696V29.3338C27.467 32.8585 24.6016 35.7159 21.067 35.7159C17.5324 35.7159 14.667 32.8585 14.667 29.3338V16.5696Z" fill="#FF6B6B"/>
<path d="M50.667 47.6262C50.667 51.1509 47.8016 54.1875 44.267 54.1875C40.7324 54.1875 37.867 51.1509 37.867 47.6262V9.33365H44.267C47.8016 9.33365 50.667 12.191 50.667 15.7157V47.6262Z" fill="#FF6B6B"/>
<path d="M50.667 47.6262C50.667 51.1509 47.8016 54.1875 44.267 54.1875H25.067C21.5324 54.1875 18.667 51.1509 18.667 47.6262V41.2441H31.467H44.267C47.8016 41.2441 50.667 44.1015 50.667 47.6262Z" fill="#FF6B6B"/>
<path d="M31.467 41.2441H37.867V34.862C37.867 38.3867 35.0016 41.2441 31.467 41.2441Z" fill="#FF6B6B"/>
</svg>
