<svg width="232" height="80" viewBox="0 0 232 80" fill="none" xmlns="http://www.w3.org/2000/svg">
<path d="M29 28.4272C29 25.7836 31.149 23.6406 33.8 23.6406C36.451 23.6406 38.6 25.7836 38.6 28.4272V38.0003C38.6 40.6439 36.451 42.7869 33.8 42.7869C31.149 42.7869 29 40.6439 29 38.0003V28.4272Z" fill="#FF6B6B"/>
<path d="M56 51.7196C56 54.3632 53.851 56.6406 51.2 56.6406C48.549 56.6406 46.4 54.3632 46.4 51.7196V23.0002H51.2C53.851 23.0002 56 25.1433 56 27.7868V51.7196Z" fill="#FF6B6B"/>
<path d="M56 51.7196C56 54.3632 53.851 56.6406 51.2 56.6406H36.8C34.149 56.6406 32 54.3632 32 51.7196V46.9331H41.6H51.2C53.851 46.9331 56 49.0761 56 51.7196Z" fill="#FF6B6B"/>
<path d="M41.6 46.9331H46.4V42.1465C46.4 44.7901 44.251 46.9331 41.6 46.9331Z" fill="#FF6B6B"/>
<path d="M109 28.5938C109 30.9062 108.542 32.9583 107.625 34.75C106.729 36.5208 105.479 37.9896 103.875 39.1562C102.292 40.3229 100.552 41.1771 98.6562 41.7188C96.7604 42.2604 94.75 42.5312 92.625 42.5312H87.6562V55.9688C87.6562 56.6979 87.7708 57.3438 88 57.9062C88.25 58.4479 88.75 58.8646 89.5 59.1562C89.875 59.3021 90.5312 59.4375 91.4688 59.5625C92.4271 59.6875 93.3021 59.7604 94.0938 59.7812V62H75.0625V59.7812C75.5625 59.7396 76.2812 59.6667 77.2188 59.5625C78.1771 59.4583 78.8438 59.3229 79.2188 59.1562C79.8438 58.8854 80.2917 58.4896 80.5625 57.9688C80.8542 57.4479 81 56.7812 81 55.9688V23.9688C81 23.2396 80.8958 22.5833 80.6875 22C80.4792 21.4167 79.9896 20.9792 79.2188 20.6875C78.4271 20.4167 77.6354 20.2292 76.8438 20.125C76.0729 20 75.4062 19.9167 74.8438 19.875V17.6562H95.0938C99.2188 17.6562 102.562 18.6562 105.125 20.6562C107.708 22.6354 109 25.2812 109 28.5938ZM99.5 36.1562C100.208 35.1562 100.677 34.125 100.906 33.0625C101.135 31.9792 101.25 31.0104 101.25 30.1562C101.25 28.9688 101.104 27.7604 100.812 26.5312C100.542 25.3021 100.062 24.2292 99.375 23.3125C98.6458 22.3333 97.6875 21.5729 96.5 21.0312C95.3125 20.4896 93.8333 20.2188 92.0625 20.2188H87.6562V39.8125H90.8438C93.0938 39.8125 94.9167 39.4688 96.3125 38.7812C97.7292 38.0729 98.7917 37.1979 99.5 36.1562ZM136.906 35.1562C136.906 36.2188 136.646 37.1667 136.125 38C135.604 38.8125 134.802 39.2188 133.719 39.2188C132.552 39.2188 131.656 38.9167 131.031 38.3125C130.427 37.7083 130.125 37.0417 130.125 36.3125C130.125 35.8542 130.156 35.4375 130.219 35.0625C130.302 34.6875 130.375 34.3125 130.438 33.9375C129.458 33.9375 128.312 34.3333 127 35.125C125.688 35.9167 124.573 37.0417 123.656 38.5V56.4375C123.656 57.1667 123.792 57.7604 124.062 58.2188C124.354 58.6771 124.802 59.0208 125.406 59.25C125.927 59.4583 126.594 59.6146 127.406 59.7188C128.24 59.8229 128.958 59.8958 129.562 59.9375V62H113.312V59.9375C113.792 59.8958 114.281 59.8542 114.781 59.8125C115.302 59.7708 115.75 59.6875 116.125 59.5625C116.708 59.375 117.135 59.0521 117.406 58.5938C117.698 58.1146 117.844 57.5 117.844 56.75V37.7188C117.844 37.0729 117.688 36.4375 117.375 35.8125C117.083 35.1875 116.667 34.6875 116.125 34.3125C115.729 34.0625 115.26 33.8854 114.719 33.7812C114.177 33.6562 113.594 33.5729 112.969 33.5312V31.5L123.219 30.8125L123.656 31.25V35.5938H123.812C125.104 33.9062 126.542 32.625 128.125 31.75C129.708 30.875 131.156 30.4375 132.469 30.4375C133.781 30.4375 134.844 30.8646 135.656 31.7188C136.49 32.5729 136.906 33.7188 136.906 35.1562ZM166.938 54.75C165.646 57.2083 163.917 59.1667 161.75 60.625C159.583 62.0833 157.094 62.8125 154.281 62.8125C151.802 62.8125 149.625 62.375 147.75 61.5C145.896 60.625 144.365 59.4375 143.156 57.9375C141.948 56.4375 141.042 54.6875 140.438 52.6875C139.854 50.6875 139.562 48.5729 139.562 46.3438C139.562 44.3438 139.875 42.3854 140.5 40.4688C141.146 38.5312 142.083 36.7917 143.312 35.25C144.5 33.7708 145.969 32.5833 147.719 31.6875C149.49 30.7708 151.469 30.3125 153.656 30.3125C155.906 30.3125 157.833 30.6667 159.438 31.375C161.042 32.0833 162.344 33.0521 163.344 34.2812C164.302 35.4479 165.01 36.8229 165.469 38.4062C165.948 39.9896 166.188 41.7083 166.188 43.5625V45.625H145.781C145.781 47.6458 145.969 49.4792 146.344 51.125C146.74 52.7708 147.354 54.2188 148.188 55.4688C149 56.6771 150.062 57.6354 151.375 58.3438C152.688 59.0312 154.25 59.375 156.062 59.375C157.917 59.375 159.51 58.9479 160.844 58.0938C162.198 57.2188 163.5 55.6562 164.75 53.4062L166.938 54.75ZM160.031 43C160.031 41.8333 159.927 40.5833 159.719 39.25C159.531 37.9167 159.219 36.8021 158.781 35.9062C158.302 34.9479 157.646 34.1667 156.812 33.5625C155.979 32.9583 154.906 32.6562 153.594 32.6562C151.406 32.6562 149.583 33.5729 148.125 35.4062C146.688 37.2188 145.906 39.75 145.781 43H160.031ZM190.844 46.9062C191.698 47.6562 192.354 48.5208 192.812 49.5C193.271 50.4792 193.5 51.6771 193.5 53.0938C193.5 55.9479 192.427 58.2812 190.281 60.0938C188.156 61.9062 185.396 62.8125 182 62.8125C180.208 62.8125 178.552 62.4896 177.031 61.8438C175.531 61.1979 174.458 60.6042 173.812 60.0625L173.188 62.0938H170.844L170.531 51.375H172.688C172.854 52.1875 173.208 53.1354 173.75 54.2188C174.292 55.3021 174.948 56.2812 175.719 57.1562C176.531 58.0729 177.5 58.8438 178.625 59.4688C179.771 60.0938 181.052 60.4062 182.469 60.4062C184.469 60.4062 186.01 59.9583 187.094 59.0625C188.177 58.1458 188.719 56.8438 188.719 55.1562C188.719 54.2812 188.542 53.5312 188.188 52.9062C187.854 52.2604 187.354 51.6979 186.688 51.2188C186 50.7396 185.156 50.3125 184.156 49.9375C183.156 49.5417 182.042 49.1562 180.812 48.7812C179.833 48.4896 178.74 48.0938 177.531 47.5938C176.344 47.0729 175.323 46.4688 174.469 45.7812C173.552 45.0521 172.802 44.1562 172.219 43.0938C171.635 42.0312 171.344 40.7812 171.344 39.3438C171.344 36.8229 172.281 34.6875 174.156 32.9375C176.031 31.1875 178.542 30.3125 181.688 30.3125C182.896 30.3125 184.125 30.4688 185.375 30.7812C186.646 31.0938 187.677 31.4688 188.469 31.9062L189.188 30.2812H191.438L191.906 40.1875H189.75C189.312 37.9792 188.365 36.1875 186.906 34.8125C185.469 33.4167 183.708 32.7188 181.625 32.7188C179.917 32.7188 178.573 33.1458 177.594 34C176.615 34.8542 176.125 35.8854 176.125 37.0938C176.125 38.0312 176.281 38.8125 176.594 39.4375C176.927 40.0625 177.417 40.5938 178.062 41.0312C178.688 41.4479 179.469 41.8438 180.406 42.2188C181.365 42.5729 182.542 42.9792 183.938 43.4375C185.312 43.875 186.604 44.3854 187.812 44.9688C189.042 45.5521 190.052 46.1979 190.844 46.9062ZM218.531 46.9062C219.385 47.6562 220.042 48.5208 220.5 49.5C220.958 50.4792 221.188 51.6771 221.188 53.0938C221.188 55.9479 220.115 58.2812 217.969 60.0938C215.844 61.9062 213.083 62.8125 209.688 62.8125C207.896 62.8125 206.24 62.4896 204.719 61.8438C203.219 61.1979 202.146 60.6042 201.5 60.0625L200.875 62.0938H198.531L198.219 51.375H200.375C200.542 52.1875 200.896 53.1354 201.438 54.2188C201.979 55.3021 202.635 56.2812 203.406 57.1562C204.219 58.0729 205.188 58.8438 206.312 59.4688C207.458 60.0938 208.74 60.4062 210.156 60.4062C212.156 60.4062 213.698 59.9583 214.781 59.0625C215.865 58.1458 216.406 56.8438 216.406 55.1562C216.406 54.2812 216.229 53.5312 215.875 52.9062C215.542 52.2604 215.042 51.6979 214.375 51.2188C213.688 50.7396 212.844 50.3125 211.844 49.9375C210.844 49.5417 209.729 49.1562 208.5 48.7812C207.521 48.4896 206.427 48.0938 205.219 47.5938C204.031 47.0729 203.01 46.4688 202.156 45.7812C201.24 45.0521 200.49 44.1562 199.906 43.0938C199.323 42.0312 199.031 40.7812 199.031 39.3438C199.031 36.8229 199.969 34.6875 201.844 32.9375C203.719 31.1875 206.229 30.3125 209.375 30.3125C210.583 30.3125 211.812 30.4688 213.062 30.7812C214.333 31.0938 215.365 31.4688 216.156 31.9062L216.875 30.2812H219.125L219.594 40.1875H217.438C217 37.9792 216.052 36.1875 214.594 34.8125C213.156 33.4167 211.396 32.7188 209.312 32.7188C207.604 32.7188 206.26 33.1458 205.281 34C204.302 34.8542 203.812 35.8854 203.812 37.0938C203.812 38.0312 203.969 38.8125 204.281 39.4375C204.615 40.0625 205.104 40.5938 205.75 41.0312C206.375 41.4479 207.156 41.8438 208.094 42.2188C209.052 42.5729 210.229 42.9792 211.625 43.4375C213 43.875 214.292 44.3854 215.5 44.9688C216.729 45.5521 217.74 46.1979 218.531 46.9062Z" fill="#3C4952"/>
</svg>
