<svg width="30" height="30" viewBox="0 0 30 30" fill="none" xmlns="http://www.w3.org/2000/svg">
<path d="M12 12C12 10.3431 13.3431 9 15 9C16.6569 9 18 10.3431 18 12V18C18 19.6569 16.6569 21 15 21C13.3431 21 12 19.6569 12 18V12Z" fill="#F79940"/>
<path d="M0 3C0 1.34315 1.34315 0 3 0C4.65685 0 6 1.34315 6 3V21H3C1.34315 21 0 19.6569 0 18V3Z" fill="#0E9AE9"/>
<path d="M0 3C0 1.34315 1.34315 0 3 0H12C13.6569 0 15 1.34315 15 3V6H3C1.34315 6 0 4.65685 0 3Z" fill="#0E9AE9"/>
<path d="M9 6H6V9C6 7.34315 7.34315 6 9 6Z" fill="#0E9AE9"/>
<path d="M30 27C30 28.6569 28.6569 30 27 30C25.3431 30 24 28.6569 24 27V9H27C28.6569 9 30 10.3431 30 12V27Z" fill="#AD71F2"/>
<path d="M30 27C30 28.6569 28.6569 30 27 30H18C16.3431 30 15 28.6569 15 27V24H27C28.6569 24 30 25.3431 30 27Z" fill="#AD71F2"/>
<path d="M21 24H24V21C24 22.6569 22.6569 24 21 24Z" fill="#AD71F2"/>
</svg>
