<svg width="152" height="76" viewBox="0 0 152 76" fill="none" xmlns="http://www.w3.org/2000/svg">
<path d="M92.7402 15.405C92.7402 13.3146 94.452 11.6201 96.5635 11.6201C98.6751 11.6201 100.387 13.3146 100.387 15.405V22.9746C100.387 25.0649 98.6751 26.7595 96.5635 26.7595C94.452 26.7595 92.7402 25.0649 92.7402 22.9746V15.405Z" fill="#F79940"/>
<path d="M77.4473 4.05046C77.4473 1.96016 79.159 0.265625 81.2706 0.265625C83.3821 0.265625 85.0939 1.96016 85.0939 4.05046V26.7595H81.2706C79.159 26.7595 77.4473 25.065 77.4473 22.9747V4.05046Z" fill="#BAE3FD"/>
<path d="M77.4473 4.05046C77.4473 1.96016 79.159 0.265625 81.2706 0.265625H92.7404C94.852 0.265625 96.5637 1.96016 96.5637 4.05046V7.8353H81.2706C79.159 7.8353 77.4473 6.14077 77.4473 4.05046Z" fill="#BAE3FD"/>
<path d="M88.9171 7.8353H85.0939V11.6201C85.0939 9.52983 86.8056 7.8353 88.9171 7.8353Z" fill="#BAE3FD"/>
<path d="M115.681 34.3291C115.681 36.4194 113.969 38.2202 111.857 38.2202C109.746 38.2202 108.034 36.4194 108.034 34.3291V11.6201H111.857C113.969 11.6201 115.681 13.3146 115.681 15.4049V34.3291Z" fill="#E7D7FD"/>
<path d="M115.681 34.3291C115.681 36.4194 113.969 38.2202 111.857 38.2202H100.387C98.2759 38.2202 96.5642 36.4194 96.5642 34.3291V30.5443H104.211H111.857C113.969 30.5443 115.681 32.2388 115.681 34.3291Z" fill="#E7D7FD"/>
<path d="M104.211 30.5443H108.034V26.7594C108.034 28.8497 106.322 30.5443 104.211 30.5443Z" fill="#E7D7FD"/>
<path d="M95.0032 30.5312C97.7998 30.5312 100.067 32.8358 100.067 35.6256V61.36H97.5351C94.7385 61.36 92.4714 59.208 92.4714 56.4182V30.5312H95.0032Z" fill="#0E9AE9"/>
<path d="M20.334 61.3601L34.1578 30.5304H41.2469L55.115 61.3601H47.5828L36.2402 34.1547H39.0759L27.689 61.3601H20.334ZM27.2459 54.8398L29.1511 49.4033H45.1016L47.0511 54.8398H27.2459Z" fill="#0E9AE9"/>
<path d="M59.5987 61.3601V30.5304H73.0238C75.8004 30.5304 78.1929 30.9871 80.2015 31.9006C82.2101 32.7845 83.7609 34.0663 84.8538 35.7459C85.9467 37.4254 86.4931 39.4291 86.4931 41.7569C86.4931 44.0552 85.9467 46.0442 84.8538 47.7238C83.7609 49.3738 82.2101 50.6409 80.2015 51.5249C78.1929 52.4088 75.8004 52.8508 73.0238 52.8508H63.5864L66.7765 49.7127V61.3601H59.5987ZM79.3154 61.3601L71.5616 50.2431H79.2268L87.0691 61.3601H79.3154ZM66.7765 50.5083L63.5864 47.1492H72.625C74.8404 47.1492 76.4945 46.6777 77.5874 45.7348C78.6803 44.7624 79.2268 43.4365 79.2268 41.7569C79.2268 40.0479 78.6803 38.7219 77.5874 37.779C76.4945 36.8361 74.8404 36.3646 72.625 36.3646H63.5864L66.7765 32.9613V50.5083Z" fill="#0E9AE9"/>
<path d="M118.175 62C115.694 62 113.316 61.6759 111.041 61.0276C108.767 60.3499 106.936 59.4807 105.547 58.4199L107.984 53.0276C109.313 53.9705 110.879 54.7514 112.681 55.3702C114.512 55.9595 116.358 56.2541 118.219 56.2541C119.637 56.2541 120.774 56.1215 121.631 55.8564C122.517 55.5617 123.167 55.1639 123.58 54.663C123.994 54.1621 124.201 53.5875 124.201 52.9392C124.201 52.1142 123.876 51.4659 123.226 50.9945C122.576 50.4936 121.719 50.0958 120.656 49.8011C119.593 49.477 118.411 49.1823 117.111 48.9171C115.841 48.6225 114.556 48.2689 113.257 47.8564C111.987 47.4438 110.82 46.9134 109.756 46.2652C108.693 45.6169 107.822 44.7624 107.142 43.7017C106.492 42.6409 106.168 41.2855 106.168 39.6354C106.168 37.8674 106.64 36.2615 107.585 34.8177C108.56 33.3444 110.008 32.1805 111.927 31.326C113.877 30.442 116.314 30 119.238 30C121.188 30 123.108 30.2357 124.998 30.7072C126.889 31.1492 128.557 31.8269 130.005 32.7403L127.789 38.1768C126.342 37.3517 124.895 36.7477 123.447 36.3646C122 35.9521 120.582 35.7459 119.194 35.7459C117.806 35.7459 116.668 35.9079 115.782 36.232C114.896 36.5562 114.261 36.9834 113.877 37.5138C113.493 38.0147 113.301 38.6041 113.301 39.2818C113.301 40.0773 113.626 40.7256 114.276 41.2265C114.926 41.698 115.782 42.081 116.846 42.3757C117.909 42.6704 119.076 42.965 120.346 43.2597C121.646 43.5543 122.93 43.8932 124.201 44.2762C125.5 44.6593 126.682 45.175 127.745 45.8232C128.808 46.4715 129.665 47.326 130.315 48.3867C130.994 49.4475 131.334 50.7882 131.334 52.4088C131.334 54.1473 130.847 55.7385 129.872 57.1823C128.897 58.6262 127.435 59.7901 125.485 60.674C123.565 61.558 121.129 62 118.175 62Z" fill="#0E9AE9"/>
</svg>
