<svg width="265" height="80" viewBox="0 0 265 80" fill="none" xmlns="http://www.w3.org/2000/svg">
<path d="M46 41.7866C46 39.143 48.149 37 50.8 37C53.451 37 55.6 39.143 55.6 41.7866V51.3597C55.6 54.0032 53.451 56.1463 50.8 56.1463C48.149 56.1463 46 54.0032 46 51.3597V41.7866Z" fill="#0E9AE9"/>
<path d="M27 27.7866C27 25.143 29.149 23 31.8 23C34.451 23 36.6 25.143 36.6 27.7866V56.506H31.8C29.149 56.506 27 54.3629 27 51.7194V27.7866Z" fill="#0E9AE9"/>
<path d="M27 27.7866C27 25.143 29.149 23 31.8 23H46.2C48.851 23 51 25.143 51 27.7866V32.5731H31.8C29.149 32.5731 27 30.4301 27 27.7866Z" fill="#0E9AE9"/>
<path d="M41.4 32.5731H36.6V37.3597C36.6 34.7162 38.749 32.5731 41.4 32.5731Z" fill="#0E9AE9"/>
<path d="M102.656 41.6562C103.594 42.6979 104.281 43.8438 104.719 45.0938C105.177 46.3229 105.406 47.7604 105.406 49.4062C105.406 53.3229 103.958 56.5521 101.062 59.0938C98.1667 61.6354 94.5729 62.9062 90.2812 62.9062C88.3021 62.9062 86.3229 62.6042 84.3438 62C82.3646 61.375 80.6562 60.625 79.2188 59.75L77.875 62.0312H75.375L74.9375 46.8438H77.4688C77.9896 48.7188 78.5938 50.4167 79.2812 51.9375C79.9896 53.4375 80.9167 54.8438 82.0625 56.1562C83.1458 57.3854 84.4062 58.3646 85.8438 59.0938C87.3021 59.8229 88.9896 60.1875 90.9062 60.1875C92.3438 60.1875 93.5938 60 94.6562 59.625C95.7396 59.25 96.6146 58.7188 97.2812 58.0312C97.9479 57.3438 98.4375 56.5417 98.75 55.625C99.0833 54.6875 99.25 53.6146 99.25 52.4062C99.25 50.6354 98.75 48.9896 97.75 47.4688C96.75 45.9271 95.2604 44.7604 93.2812 43.9688C91.9271 43.4271 90.375 42.8333 88.625 42.1875C86.875 41.5208 85.3646 40.8958 84.0938 40.3125C81.5938 39.1875 79.6458 37.7188 78.25 35.9062C76.875 34.0729 76.1875 31.6875 76.1875 28.75C76.1875 27.0625 76.5312 25.4896 77.2188 24.0312C77.9062 22.5729 78.8854 21.2708 80.1562 20.125C81.3646 19.0417 82.7917 18.1979 84.4375 17.5938C86.0833 16.9688 87.8021 16.6562 89.5938 16.6562C91.6354 16.6562 93.4583 16.9688 95.0625 17.5938C96.6875 18.2188 98.1667 18.9479 99.5 19.7812L100.781 17.6562H103.281L103.531 32.375H101C100.542 30.6875 100.021 29.0729 99.4375 27.5312C98.875 25.9896 98.1354 24.5938 97.2188 23.3438C96.3229 22.1354 95.2292 21.1771 93.9375 20.4688C92.6458 19.7396 91.0625 19.375 89.1875 19.375C87.2083 19.375 85.5208 20.0104 84.125 21.2812C82.7292 22.5521 82.0312 24.1042 82.0312 25.9375C82.0312 27.8542 82.4792 29.4479 83.375 30.7188C84.2708 31.9688 85.5729 33 87.2812 33.8125C88.8021 34.5417 90.2917 35.1771 91.75 35.7188C93.2292 36.2396 94.6562 36.8021 96.0312 37.4062C97.2812 37.9479 98.4792 38.5625 99.625 39.25C100.792 39.9375 101.802 40.7396 102.656 41.6562ZM129.219 60.6562C127.865 61.2188 126.583 61.6875 125.375 62.0625C124.167 62.4583 122.688 62.6562 120.938 62.6562C118.354 62.6562 116.531 62.0104 115.469 60.7188C114.427 59.4062 113.906 57.5625 113.906 55.1875V34.3125H108.344V31.3125H114.031V21.7188H119.719V31.3125H128.562V34.3125H119.781V51.5312C119.781 52.8229 119.823 53.9062 119.906 54.7812C120.01 55.6354 120.24 56.3854 120.594 57.0312C120.927 57.6354 121.427 58.0938 122.094 58.4062C122.76 58.7188 123.656 58.875 124.781 58.875C125.302 58.875 126.062 58.8333 127.062 58.75C128.083 58.6458 128.802 58.5208 129.219 58.375V60.6562ZM165.344 61.4375L155.312 62.125L154.844 61.6875V57.7812H154.656C154.156 58.3021 153.594 58.8646 152.969 59.4688C152.344 60.0521 151.625 60.5833 150.812 61.0625C149.875 61.625 148.969 62.0521 148.094 62.3438C147.219 62.6354 145.979 62.7812 144.375 62.7812C141.646 62.7812 139.562 61.8958 138.125 60.125C136.708 58.3333 136 55.7396 136 52.3438V37.5938C136 36.8438 135.854 36.2188 135.562 35.7188C135.292 35.1979 134.885 34.75 134.344 34.375C133.969 34.125 133.5 33.9479 132.938 33.8438C132.375 33.7188 131.781 33.6354 131.156 33.5938V31.5625L141.438 30.8125L141.906 31.25V52.6562C141.906 54.8854 142.406 56.5625 143.406 57.6875C144.406 58.8125 145.604 59.375 147 59.375C148.146 59.375 149.167 59.1979 150.062 58.8438C150.958 58.4896 151.708 58.0729 152.312 57.5938C152.875 57.1562 153.365 56.6979 153.781 56.2188C154.219 55.7188 154.552 55.2604 154.781 54.8438V37.375C154.781 36.6875 154.635 36.0833 154.344 35.5625C154.052 35.0208 153.646 34.5625 153.125 34.1875C152.75 33.9375 152.188 33.7917 151.438 33.75C150.708 33.6875 149.885 33.6354 148.969 33.5938V31.5625L160.156 30.8125L160.625 31.25V55.7188C160.625 56.4271 160.771 57.0312 161.062 57.5312C161.354 58.0312 161.76 58.4583 162.281 58.8125C162.656 59.0417 163.104 59.1979 163.625 59.2812C164.146 59.3438 164.719 59.3854 165.344 59.4062V61.4375ZM202.875 61.4375L192.125 62.125L191.656 61.6875V58.8125L191.406 58.75C190.323 59.9583 188.979 60.9479 187.375 61.7188C185.792 62.4896 184.156 62.875 182.469 62.875C180.719 62.875 179.021 62.4896 177.375 61.7188C175.75 60.9271 174.333 59.8229 173.125 58.4062C171.896 56.9688 170.917 55.2396 170.188 53.2188C169.479 51.1979 169.125 48.9688 169.125 46.5312C169.125 44.3021 169.51 42.1875 170.281 40.1875C171.052 38.1875 172.115 36.4375 173.469 34.9375C174.74 33.5417 176.292 32.4271 178.125 31.5938C179.979 30.7604 181.865 30.3438 183.781 30.3438C185.219 30.3438 186.625 30.5312 188 30.9062C189.396 31.2604 190.594 31.7188 191.594 32.2812V21.5625C191.594 20.6875 191.448 19.8958 191.156 19.1875C190.865 18.4583 190.458 17.9062 189.938 17.5312C189.354 17.1354 188.562 16.8542 187.562 16.6875C186.583 16.5 185.521 16.3646 184.375 16.2812V14.3438L196.969 13.625L197.438 14.0938V55.6562C197.438 56.3854 197.573 57.0104 197.844 57.5312C198.135 58.0312 198.552 58.4583 199.094 58.8125C199.49 59.0625 200.062 59.2188 200.812 59.2812C201.562 59.3438 202.25 59.3854 202.875 59.4062V61.4375ZM191.594 56.0312V38C191.427 37.4583 191.156 36.875 190.781 36.25C190.406 35.625 189.938 35.0521 189.375 34.5312C188.771 34.0104 188.062 33.5833 187.25 33.25C186.438 32.8958 185.49 32.7188 184.406 32.7188C183.156 32.7188 182 33.0417 180.938 33.6875C179.896 34.3333 178.969 35.2604 178.156 36.4688C177.385 37.6354 176.771 39.125 176.312 40.9375C175.875 42.7292 175.656 44.7188 175.656 46.9062C175.656 48.6562 175.823 50.25 176.156 51.6875C176.49 53.1042 177.052 54.4271 177.844 55.6562C178.573 56.8229 179.5 57.7604 180.625 58.4688C181.771 59.1771 183.125 59.5312 184.688 59.5312C186.354 59.5312 187.729 59.1667 188.812 58.4375C189.917 57.7083 190.844 56.9062 191.594 56.0312ZM220.844 62H205.938V59.9375C206.417 59.8958 206.906 59.8542 207.406 59.8125C207.927 59.7708 208.375 59.6875 208.75 59.5625C209.333 59.375 209.76 59.0521 210.031 58.5938C210.323 58.1146 210.469 57.5 210.469 56.75V37.7188C210.469 37.0521 210.312 36.4479 210 35.9062C209.708 35.3438 209.292 34.875 208.75 34.5C208.354 34.25 207.781 34.0417 207.031 33.875C206.281 33.6875 205.594 33.5729 204.969 33.5312V31.5L215.844 30.8125L216.281 31.25V56.375C216.281 57.1042 216.417 57.7083 216.688 58.1875C216.979 58.6667 217.427 59.0208 218.031 59.25C218.49 59.4375 218.938 59.5938 219.375 59.7188C219.812 59.8229 220.302 59.8958 220.844 59.9375V62ZM216.906 18.6562C216.906 19.8438 216.51 20.8854 215.719 21.7812C214.948 22.6562 213.99 23.0938 212.844 23.0938C211.781 23.0938 210.854 22.6771 210.062 21.8438C209.292 20.9896 208.906 20.0208 208.906 18.9375C208.906 17.7917 209.292 16.7917 210.062 15.9375C210.854 15.0833 211.781 14.6562 212.844 14.6562C214.031 14.6562 215 15.0625 215.75 15.875C216.521 16.6667 216.906 17.5938 216.906 18.6562ZM254.656 46.2812C254.656 48.4479 254.312 50.5833 253.625 52.6875C252.938 54.7708 251.958 56.5417 250.688 58C249.25 59.6667 247.583 60.9062 245.688 61.7188C243.792 62.5312 241.667 62.9375 239.312 62.9375C237.354 62.9375 235.49 62.5729 233.719 61.8438C231.948 61.0938 230.375 60.0104 229 58.5938C227.646 57.1979 226.562 55.5 225.75 53.5C224.958 51.4792 224.562 49.2188 224.562 46.7188C224.562 41.9062 225.958 37.9688 228.75 34.9062C231.562 31.8438 235.24 30.3125 239.781 30.3125C244.094 30.3125 247.646 31.7708 250.438 34.6875C253.25 37.5833 254.656 41.4479 254.656 46.2812ZM248.188 46.3438C248.188 44.7812 248.031 43.1354 247.719 41.4062C247.406 39.6562 246.938 38.1771 246.312 36.9688C245.646 35.6771 244.771 34.6458 243.688 33.875C242.604 33.0833 241.281 32.6875 239.719 32.6875C238.115 32.6875 236.74 33.0833 235.594 33.875C234.469 34.6667 233.552 35.75 232.844 37.125C232.177 38.3958 231.708 39.8438 231.438 41.4688C231.167 43.0938 231.031 44.6667 231.031 46.1875C231.031 48.1875 231.188 50.0417 231.5 51.75C231.833 53.4375 232.354 54.9479 233.062 56.2812C233.771 57.6146 234.656 58.6667 235.719 59.4375C236.802 60.1875 238.135 60.5625 239.719 60.5625C242.323 60.5625 244.385 59.3021 245.906 56.7812C247.427 54.2604 248.188 50.7812 248.188 46.3438Z" fill="#3C4952"/>
</svg>
