<svg width="64" height="64" viewBox="0 0 64 64" fill="none" xmlns="http://www.w3.org/2000/svg">
<path d="M38.667 34.3821C38.667 30.8574 41.5324 28 45.067 28C48.6016 28 51.467 30.8574 51.467 34.3821V47.1463C51.467 50.671 48.6016 53.5284 45.067 53.5284C41.5324 53.5284 38.667 50.671 38.667 47.1463V34.3821Z" fill="#38B4F8"/>
<path d="M13.333 15.7156C13.333 12.1909 16.1984 9.3335 19.733 9.3335C23.2676 9.3335 26.133 12.1909 26.133 15.7156V54.0081H19.733C16.1984 54.0081 13.333 51.1508 13.333 47.626V15.7156Z" fill="#38B4F8"/>
<path d="M13.333 15.7156C13.333 12.1909 16.1984 9.3335 19.733 9.3335H38.933C42.4676 9.3335 45.333 12.1909 45.333 15.7156V22.0977H19.733C16.1984 22.0977 13.333 19.2403 13.333 15.7156Z" fill="#38B4F8"/>
<path d="M32.533 22.0977H26.133V28.4798C26.133 24.955 28.9984 22.0977 32.533 22.0977Z" fill="#38B4F8"/>
</svg>
