<svg width="64" height="64" viewBox="0 0 64 64" fill="none" xmlns="http://www.w3.org/2000/svg">
<g clip-path="url(#clip0_7239_5456)">
<path d="M64 57.4382C64 60.9629 61.1346 63.9995 57.6 63.9995C54.0654 63.9995 51.2 60.9629 51.2 57.4382V19.1457H57.6C61.1346 19.1457 64 22.003 64 25.5278V57.4382Z" fill="#AD71F2"/>
<path d="M64 57.4382C64 60.9629 61.1346 63.9995 57.6 63.9995H38.4C34.8654 63.9995 32 60.9629 32 57.4382V51.0561H44.8H57.6C61.1346 51.0561 64 53.9135 64 57.4382Z" fill="#AD71F2"/>
<path d="M44.8 51.0561H51.2V44.674C51.2 48.1988 48.3346 51.0561 44.8 51.0561Z" fill="#AD71F2"/>
<path d="M0 6.38209C0 2.85736 2.86538 0 6.4 0C9.93462 0 12.8 2.85736 12.8 6.38209V44.6746H6.4C2.86538 44.6746 0 41.8173 0 38.2925V6.38209Z" fill="#AD71F2"/>
<path d="M0 6.38209C0 2.85736 2.86538 0 6.4 0H25.6C29.1346 0 32 2.85736 32 6.38209V12.7642H6.4C2.86538 12.7642 0 9.90682 0 6.38209Z" fill="#AD71F2"/>
<path d="M19.2 12.7642H12.8V19.1463C12.8 15.6215 15.6654 12.7642 19.2 12.7642Z" fill="#AD71F2"/>
</g>
<defs>
<clipPath id="clip0_7239_5456">
<rect width="64" height="64" rx="4.75" fill="white"/>
</clipPath>
</defs>
</svg>
