<svg width="273" height="80" viewBox="0 0 273 80" fill="none" xmlns="http://www.w3.org/2000/svg">
<g clip-path="url(#clip0_7235_5966)">
<path d="M56 59.079C56 61.7226 53.851 64 51.2 64C48.549 64 46.4 61.7226 46.4 59.079V30.3596H51.2C53.851 30.3596 56 32.5026 56 35.1462V59.079Z" fill="#AD71F2"/>
<path d="M56 59.079C56 61.7226 53.851 64 51.2 64H36.8C34.149 64 32 61.7226 32 59.079V54.2924H41.6H51.2C53.851 54.2924 56 56.4355 56 59.079Z" fill="#AD71F2"/>
<path d="M41.6 54.2924H46.4V49.5059C46.4 52.1494 44.251 54.2924 41.6 54.2924Z" fill="#AD71F2"/>
<path d="M8 20.7866C8 18.143 10.149 16 12.8 16C15.451 16 17.6 18.143 17.6 20.7866V49.506H12.8C10.149 49.506 8 47.3629 8 44.7194V20.7866Z" fill="#AD71F2"/>
<path d="M8 20.7866C8 18.143 10.149 16 12.8 16H27.2C29.851 16 32 18.143 32 20.7866V25.5731H12.8C10.149 25.5731 8 23.4301 8 20.7866Z" fill="#AD71F2"/>
<path d="M22.4 25.5731H17.6V30.3597C17.6 27.7162 19.749 25.5731 22.4 25.5731Z" fill="#AD71F2"/>
</g>
<path d="M109.469 28.75H107.125C106.688 27.1042 105.771 25.3438 104.375 23.4688C103 21.5938 101.677 20.5625 100.406 20.375C99.7604 20.2917 98.9896 20.2292 98.0938 20.1875C97.2188 20.1458 96.2188 20.125 95.0938 20.125H87.6562V37.9375H92.75C94.2917 37.9375 95.4896 37.7812 96.3438 37.4688C97.1979 37.1354 97.9271 36.6354 98.5312 35.9688C98.9479 35.5104 99.3229 34.8021 99.6562 33.8438C100.01 32.8646 100.24 31.8229 100.344 30.7188H102.719V48.125H100.344C100.281 47.2083 100.062 46.1667 99.6875 45C99.3333 43.8333 98.9479 42.9896 98.5312 42.4688C97.9062 41.6979 97.1146 41.1771 96.1562 40.9062C95.2188 40.6146 94.0833 40.4688 92.75 40.4688H87.6562V55.75C87.6562 56.4375 87.7917 57.0521 88.0625 57.5938C88.3333 58.1354 88.8125 58.5729 89.5 58.9062C89.8125 59.0521 90.4896 59.2292 91.5312 59.4375C92.5729 59.6458 93.3646 59.7604 93.9062 59.7812V62H74.6875V59.7812C75.3125 59.7396 76.1458 59.6771 77.1875 59.5938C78.2292 59.4896 78.9062 59.3646 79.2188 59.2188C79.8438 58.9479 80.2917 58.5521 80.5625 58.0312C80.8542 57.4896 81 56.8438 81 56.0938V24.0938C81 23.4062 80.8854 22.8021 80.6562 22.2812C80.4271 21.7396 79.9479 21.3021 79.2188 20.9688C78.6562 20.6979 77.8958 20.4583 76.9375 20.25C76 20.0417 75.25 19.9167 74.6875 19.875V17.6562H109.469V28.75ZM142.656 46.2812C142.656 48.4479 142.312 50.5833 141.625 52.6875C140.938 54.7708 139.958 56.5417 138.688 58C137.25 59.6667 135.583 60.9062 133.688 61.7188C131.792 62.5312 129.667 62.9375 127.312 62.9375C125.354 62.9375 123.49 62.5729 121.719 61.8438C119.948 61.0938 118.375 60.0104 117 58.5938C115.646 57.1979 114.562 55.5 113.75 53.5C112.958 51.4792 112.562 49.2188 112.562 46.7188C112.562 41.9062 113.958 37.9688 116.75 34.9062C119.562 31.8438 123.24 30.3125 127.781 30.3125C132.094 30.3125 135.646 31.7708 138.438 34.6875C141.25 37.5833 142.656 41.4479 142.656 46.2812ZM136.188 46.3438C136.188 44.7812 136.031 43.1354 135.719 41.4062C135.406 39.6562 134.938 38.1771 134.312 36.9688C133.646 35.6771 132.771 34.6458 131.688 33.875C130.604 33.0833 129.281 32.6875 127.719 32.6875C126.115 32.6875 124.74 33.0833 123.594 33.875C122.469 34.6667 121.552 35.75 120.844 37.125C120.177 38.3958 119.708 39.8438 119.438 41.4688C119.167 43.0938 119.031 44.6667 119.031 46.1875C119.031 48.1875 119.188 50.0417 119.5 51.75C119.833 53.4375 120.354 54.9479 121.062 56.2812C121.771 57.6146 122.656 58.6667 123.719 59.4375C124.802 60.1875 126.135 60.5625 127.719 60.5625C130.323 60.5625 132.385 59.3021 133.906 56.7812C135.427 54.2604 136.188 50.7812 136.188 46.3438ZM170.719 35.1562C170.719 36.2188 170.458 37.1667 169.938 38C169.417 38.8125 168.615 39.2188 167.531 39.2188C166.365 39.2188 165.469 38.9167 164.844 38.3125C164.24 37.7083 163.938 37.0417 163.938 36.3125C163.938 35.8542 163.969 35.4375 164.031 35.0625C164.115 34.6875 164.188 34.3125 164.25 33.9375C163.271 33.9375 162.125 34.3333 160.812 35.125C159.5 35.9167 158.385 37.0417 157.469 38.5V56.4375C157.469 57.1667 157.604 57.7604 157.875 58.2188C158.167 58.6771 158.615 59.0208 159.219 59.25C159.74 59.4583 160.406 59.6146 161.219 59.7188C162.052 59.8229 162.771 59.8958 163.375 59.9375V62H147.125V59.9375C147.604 59.8958 148.094 59.8542 148.594 59.8125C149.115 59.7708 149.562 59.6875 149.938 59.5625C150.521 59.375 150.948 59.0521 151.219 58.5938C151.51 58.1146 151.656 57.5 151.656 56.75V37.7188C151.656 37.0729 151.5 36.4375 151.188 35.8125C150.896 35.1875 150.479 34.6875 149.938 34.3125C149.542 34.0625 149.073 33.8854 148.531 33.7812C147.99 33.6562 147.406 33.5729 146.781 33.5312V31.5L157.031 30.8125L157.469 31.25V35.5938H157.625C158.917 33.9062 160.354 32.625 161.938 31.75C163.521 30.875 164.969 30.4375 166.281 30.4375C167.594 30.4375 168.656 30.8646 169.469 31.7188C170.302 32.5729 170.719 33.7188 170.719 35.1562ZM206.406 61.4375L196.375 62.125L195.906 61.6875V57.7812H195.719C195.219 58.3021 194.656 58.8646 194.031 59.4688C193.406 60.0521 192.688 60.5833 191.875 61.0625C190.938 61.625 190.031 62.0521 189.156 62.3438C188.281 62.6354 187.042 62.7812 185.438 62.7812C182.708 62.7812 180.625 61.8958 179.188 60.125C177.771 58.3333 177.062 55.7396 177.062 52.3438V37.5938C177.062 36.8438 176.917 36.2188 176.625 35.7188C176.354 35.1979 175.948 34.75 175.406 34.375C175.031 34.125 174.562 33.9479 174 33.8438C173.438 33.7188 172.844 33.6354 172.219 33.5938V31.5625L182.5 30.8125L182.969 31.25V52.6562C182.969 54.8854 183.469 56.5625 184.469 57.6875C185.469 58.8125 186.667 59.375 188.062 59.375C189.208 59.375 190.229 59.1979 191.125 58.8438C192.021 58.4896 192.771 58.0729 193.375 57.5938C193.938 57.1562 194.427 56.6979 194.844 56.2188C195.281 55.7188 195.615 55.2604 195.844 54.8438V37.375C195.844 36.6875 195.698 36.0833 195.406 35.5625C195.115 35.0208 194.708 34.5625 194.188 34.1875C193.812 33.9375 193.25 33.7917 192.5 33.75C191.771 33.6875 190.948 33.6354 190.031 33.5938V31.5625L201.219 30.8125L201.688 31.25V55.7188C201.688 56.4271 201.833 57.0312 202.125 57.5312C202.417 58.0312 202.823 58.4583 203.344 58.8125C203.719 59.0417 204.167 59.1979 204.688 59.2812C205.208 59.3438 205.781 59.3854 206.406 59.4062V61.4375ZM262.969 62H247.938V59.9375C248.417 59.8958 248.896 59.8542 249.375 59.8125C249.875 59.7708 250.312 59.6875 250.688 59.5625C251.271 59.375 251.698 59.0521 251.969 58.5938C252.26 58.1146 252.406 57.5 252.406 56.75V40.8438C252.406 38.6771 251.906 37.0104 250.906 35.8438C249.927 34.6562 248.698 34.0625 247.219 34.0625C246.198 34.0625 245.24 34.2188 244.344 34.5312C243.448 34.8438 242.625 35.2812 241.875 35.8438C241.271 36.3021 240.76 36.8021 240.344 37.3438C239.948 37.8646 239.646 38.3021 239.438 38.6562V56.4375C239.438 57.1667 239.562 57.7708 239.812 58.25C240.062 58.7083 240.49 59.0625 241.094 59.3125C241.573 59.5 242 59.6458 242.375 59.75C242.771 59.8333 243.281 59.8958 243.906 59.9375V62H229.188V59.9375C229.667 59.8958 230.125 59.8542 230.562 59.8125C231.021 59.7708 231.438 59.6875 231.812 59.5625C232.396 59.375 232.823 59.0521 233.094 58.5938C233.385 58.1146 233.531 57.5 233.531 56.75V40.8438C233.531 38.6771 233.031 37.0104 232.031 35.8438C231.052 34.6562 229.823 34.0625 228.344 34.0625C227.323 34.0625 226.365 34.2292 225.469 34.5625C224.573 34.875 223.75 35.3125 223 35.875C222.396 36.3333 221.885 36.8542 221.469 37.4375C221.052 38 220.74 38.4271 220.531 38.7188V56.375C220.531 57.0833 220.677 57.6771 220.969 58.1562C221.26 58.6354 221.698 59 222.281 59.25C222.719 59.4583 223.167 59.6146 223.625 59.7188C224.083 59.8229 224.594 59.8958 225.156 59.9375V62H210.188V59.9375C210.667 59.8958 211.156 59.8542 211.656 59.8125C212.177 59.7708 212.625 59.6875 213 59.5625C213.583 59.375 214.01 59.0521 214.281 58.5938C214.573 58.1146 214.719 57.5 214.719 56.75V37.5938C214.719 36.9271 214.562 36.3333 214.25 35.8125C213.958 35.2708 213.542 34.8125 213 34.4375C212.604 34.1875 212.115 33.9896 211.531 33.8438C210.948 33.6771 210.344 33.5729 209.719 33.5312V31.5L220.031 30.8125L220.469 31.25V35.6562H220.688C221.208 35.1354 221.844 34.5208 222.594 33.8125C223.344 33.1042 224.042 32.5312 224.688 32.0938C225.417 31.5938 226.323 31.1771 227.406 30.8438C228.51 30.5104 229.698 30.3438 230.969 30.3438C232.969 30.3438 234.688 30.8854 236.125 31.9688C237.562 33.0312 238.594 34.3229 239.219 35.8438C239.969 35.1146 240.625 34.4792 241.188 33.9375C241.771 33.375 242.531 32.7812 243.469 32.1562C244.26 31.6146 245.188 31.1771 246.25 30.8438C247.333 30.5104 248.531 30.3438 249.844 30.3438C252.448 30.3438 254.51 31.1979 256.031 32.9062C257.552 34.6146 258.312 37.2396 258.312 40.7812V56.4375C258.312 57.1667 258.438 57.7708 258.688 58.25C258.938 58.7083 259.365 59.0625 259.969 59.3125C260.448 59.5 260.917 59.6458 261.375 59.75C261.854 59.8333 262.385 59.8958 262.969 59.9375V62Z" fill="#3C4952"/>
<defs>
<clipPath id="clip0_7235_5966">
<rect x="8" y="16" width="48" height="48" rx="4.75" fill="white"/>
</clipPath>
</defs>
</svg>
